<svg xmlns="http://www.w3.org/2000/svg" xmlns:xlink="http://www.w3.org/1999/xlink" version="1.1" x="0px" y="0px" viewBox="0 0 100 125" enable-background="new 0 0 100 100" xml:space="preserve"><g><circle cx="55.062" cy="29.746" r="1.518"/><path d="M91.357,76.884H80.37v-2.327c0-0.019-0.01-0.035-0.011-0.054c1.876-3.213,2.869-6.886,2.869-10.627   c0-4.865-1.381-9.258-3.996-12.726V40.557c0-2.719-0.616-5.428-1.786-7.88c2.104-1.729,3.339-4.313,3.339-7.058   c0-5.042-4.102-9.145-9.143-9.145h-9.424c-4.396,0-8.166,3.165-8.973,7.441c-6.317,2.925-10.373,9.4-10.373,16.641V51.15   c-1.381,1.823-2.448,3.855-3.181,6.053h-2.186c-4.508,0-8.639,2.163-11.22,5.829c-1.352-0.731-2.86-1.115-4.412-1.115   c-0.021,0-0.041,0.001-0.062,0.003c-0.021-0.002-0.039-0.003-0.053-0.003H10.794c-2.321,0-4.211,1.89-4.211,4.213   c0,0.757,0.157,1.392,0.466,1.957c-0.635,0.752-0.996,1.698-0.996,2.706c0,1.175,0.485,2.271,1.313,3.057   c-0.504,0.708-0.783,1.563-0.783,2.444c0,2.321,1.89,4.21,4.211,4.21h10.967c0.138,0,0.271-0.016,0.432-0.041   c1.533-0.053,3.014-0.479,4.33-1.244c2.143,2.879,5.209,4.856,8.553,5.513c0.711,0.51,1.575,0.818,2.515,0.818h15.323   c0.77,0,1.482-0.219,2.109-0.572h7.107c3.432,0,6.795-0.836,9.808-2.419c0.569,1.73,2.182,2.991,4.099,2.991h15.321   c2.389,0,4.333-1.943,4.333-4.332C95.69,78.828,93.746,76.884,91.357,76.884z M91.357,83.749H76.035   c-1.396,0-2.531-1.136-2.531-2.532v-6.66c0-0.497-0.403-0.9-0.9-0.9s-0.9,0.403-0.9,0.9v6.071   c-2.905,1.663-6.203,2.549-9.573,2.549h-5.376c0.303-0.592,0.49-1.251,0.49-1.96v-6.66c0-0.497-0.403-0.9-0.9-0.9   s-0.9,0.403-0.9,0.9v6.66c0,1.396-1.136,2.532-2.532,2.532H37.59c-1.396,0-2.532-1.136-2.532-2.531   c0-1.397,1.136-2.533,2.532-2.533h11.889c0.497,0,0.9-0.403,0.9-0.9v-3.228c0-0.497-0.403-0.9-0.9-0.9s-0.9,0.403-0.9,0.9v2.327   H37.59c-2.389,0-4.333,1.944-4.333,4.334c0,0.406,0.074,0.791,0.179,1.164c-2.351-0.93-4.441-2.63-5.921-4.884   c-0.134-0.205-0.347-0.346-0.588-0.391c-0.244-0.049-0.49,0.01-0.689,0.154c-1.206,0.866-2.625,1.352-4.174,1.407l-0.139,0.018   c-0.054,0.007-0.108,0.017-0.164,0.017H10.794c-1.329,0-2.41-1.08-2.41-2.409c0-0.555,0.202-1.086,0.548-1.514   c0.429,0.143,0.878,0.224,1.332,0.224h10.968c0.497,0,0.9-0.403,0.9-0.9s-0.403-0.9-0.9-0.9H10.264   c-0.397,0-0.776-0.094-1.126-0.277c-0.792-0.42-1.284-1.237-1.284-2.133c0-0.742,0.333-1.432,0.914-1.893   c0.43-0.34,0.947-0.52,1.496-0.52h10.968c0.497,0,0.9-0.403,0.9-0.9s-0.403-0.9-0.9-0.9H10.264c-0.609,0-1.206,0.147-1.756,0.4   c-0.085-0.24-0.124-0.513-0.124-0.851c0-1.33,1.081-2.412,2.41-2.412l10.89-0.005c0.031,0.005,0.114,0.015,0.146,0.016   c0.064,0.004,0.123,0,0.182-0.01c1.449,0.026,2.846,0.467,4.048,1.277c0.203,0.138,0.457,0.187,0.693,0.134   c0.24-0.053,0.448-0.2,0.576-0.409c2.198-3.58,6.002-5.717,10.178-5.717h2.845c0.397,0,0.748-0.262,0.862-0.643   c0.697-2.33,1.797-4.467,3.269-6.352c0.124-0.158,0.191-0.353,0.191-0.554V40.557c0-6.692,3.822-12.654,9.738-15.189   c0.292-0.125,0.497-0.396,0.538-0.71c0.477-3.639,3.602-6.382,7.269-6.382h9.424c4.049,0,7.342,3.294,7.342,7.344   c0,2.415-1.192,4.677-3.189,6.049c-0.377,0.26-0.5,0.76-0.285,1.164c1.258,2.37,1.922,5.042,1.922,7.725v10.899   c0,0.201,0.067,0.396,0.191,0.554c2.489,3.186,3.805,7.289,3.805,11.866c0,3.436-0.913,6.809-2.642,9.755   c-0.095,0.162-0.117,0.34-0.104,0.515c-0.065,0.125-0.112,0.261-0.112,0.411v3.228c0,0.497,0.403,0.9,0.9,0.9h11.888   c1.396,0,2.532,1.136,2.532,2.533C93.89,82.613,92.754,83.749,91.357,83.749z"/><path d="M76.655,25.193c0-0.497-0.403-0.9-0.9-0.9s-0.9,0.403-0.9,0.9c0,1.563-1.272,2.836-2.838,2.836   c-1.063,0-2.029-0.598-2.52-1.562c-0.153-0.302-0.463-0.492-0.802-0.492c0,0,0,0-0.001,0c-0.339,0.001-0.648,0.191-0.802,0.493   c-0.488,0.963-1.453,1.561-2.518,1.561c-1.565,0-2.838-1.272-2.838-2.836c0-0.497-0.403-0.9-0.9-0.9s-0.9,0.403-0.9,0.9   c0,1.469,0.699,2.764,1.769,3.614v12.073c0,1.263,1.028,2.291,2.292,2.291c1.263,0,2.291-1.028,2.291-2.291V29.49   c0.604-0.242,1.153-0.602,1.608-1.075c0.457,0.476,1.01,0.836,1.616,1.078v11.388c0,1.263,1.028,2.291,2.291,2.291   c1.264,0,2.292-1.028,2.292-2.291V28.8C75.959,27.949,76.655,26.657,76.655,25.193z M64.797,41.371c-0.271,0-0.491-0.22-0.491-0.49   V29.693c0.316,0.075,0.644,0.121,0.981,0.128v11.06C65.287,41.151,65.067,41.371,64.797,41.371z M73.095,40.881   c0,0.271-0.22,0.49-0.491,0.49c-0.271,0-0.49-0.22-0.49-0.49V29.82c0.338-0.007,0.665-0.054,0.981-0.13V40.881z"/></g><text x="0" y="115" fill="#000000" font-size="5px" font-weight="bold" font-family="'Helvetica Neue', Helvetica, Arial-Unicode, Arial, Sans-serif">Created by mungang kim</text><text x="0" y="120" fill="#000000" font-size="5px" font-weight="bold" font-family="'Helvetica Neue', Helvetica, Arial-Unicode, Arial, Sans-serif">from the Noun Project</text></svg>